<svg xmlns="http://www.w3.org/2000/svg" viewBox="0 0 64 64" fill="none">
  <defs>
    <linearGradient id="g" x1="12" y1="8" x2="52" y2="56" gradientUnits="userSpaceOnUse">
      <stop offset="0" stop-color="#18280E"/>
      <stop offset="0.54" stop-color="#2D6B45"/>
      <stop offset="1" stop-color="#18280E"/>
    </linearGradient>
    <radialGradient id="r" cx="0" cy="0" r="1" gradientUnits="userSpaceOnUse" gradientTransform="translate(33 31) rotate(90) scale(24)">
      <stop offset="0" stop-color="#B2EB76" stop-opacity=".42"/>
      <stop offset="1" stop-color="#B2EB76" stop-opacity="0"/>
    </radialGradient>
  </defs>
  <path d="M32 5.5C47.1 5.5 58.5 16.9 58.5 32S47.1 58.5 32 58.5 5.5 47.1 5.5 32 16.9 5.5 32 5.5Z" fill="url(#r)"/>
  <path d="M32 8.5c12.9 0 23.5 10.6 23.5 23.5S44.9 55.5 32 55.5 8.5 44.9 8.5 32 19.1 8.5 32 8.5Z" stroke="url(#g)" stroke-width="3"/>
  <path d="M32 17.5c8.5 0 14.5 6 14.5 14.5S40.5 46.5 32 46.5 17.5 40.5 17.5 32 23.5 17.5 32 17.5Z" stroke="#18280E" stroke-width="1.35" stroke-dasharray="2.4 4.2" opacity=".5"/>
  <path d="M32 21.5c3.7 0 7 1.7 9.1 4.4l-8.8 5.3H21.7C22.1 25.8 26.5 21.5 32 21.5Z" fill="#18280E" opacity=".9"/>
  <path d="M42.2 28.3c.5 1.2.8 2.5.8 3.9 0 5.7-4.6 10.3-10.3 10.3-2.4 0-4.5-.8-6.2-2.1l8.8-5.4h8.6c-.1-2.4-.7-4.6-1.7-6.7Z" fill="#18280E" opacity=".72"/>
  <path d="M21.7 31.2h10.6l-8.8 5.4a10.2 10.2 0 0 1-1.8-5.4Z" fill="#2D6B45" opacity=".95"/>
  <path d="M24.8 13.7 20.4 9.3M43.6 54.7l-4.4-4.4M50.3 20.4l4.4-4.4M9.3 43.6l4.4-4.4" stroke="#2D6B45" stroke-width="1.5" stroke-linecap="round" opacity=".7"/>
</svg>
